<svg width="626" height="502" viewBox="0 0 626 502" fill="none" xmlns="http://www.w3.org/2000/svg">
<path d="M109.782 391.956L113.372 388.81C112.253 386.922 111.306 384.964 110.548 382.951L105.88 383.876C104.608 384.129 103.374 383.291 103.127 382.005L101.576 373.953C101.328 372.665 102.161 371.41 103.434 371.155L108.153 370.205C108.123 368.028 108.277 365.849 108.616 363.694L104.056 362.128C102.825 361.706 102.171 360.35 102.596 359.1L105.247 351.267C105.672 350.011 107.017 349.336 108.25 349.757L112.831 351.322C113.87 349.422 115.088 347.6 116.471 345.867L113.277 342.161C112.418 341.165 112.525 339.644 113.515 338.763L119.715 333.235C120.708 332.35 122.212 332.439 123.072 333.436L126.276 337.154C128.162 335.985 130.119 334.99 132.13 334.185L131.216 329.324C130.969 328.014 131.821 326.732 133.117 326.46L141.247 324.763C142.549 324.49 143.804 325.335 144.05 326.651L144.958 331.519C147.151 331.454 149.342 331.582 151.509 331.898L153.142 327.185C153.584 325.91 154.96 325.218 156.216 325.639L164.075 328.286C165.332 328.709 165.992 330.089 165.544 331.365L163.913 336.033C165.821 337.078 167.647 338.31 169.379 339.709L173.099 336.449C174.118 335.557 175.647 335.649 176.512 336.655L181.936 342.949C182.804 343.956 182.677 345.493 181.657 346.383L177.957 349.607C179.105 351.532 180.071 353.531 180.843 355.586L185.59 354.632C186.908 354.367 188.171 355.217 188.411 356.531L189.905 364.74C190.143 366.051 189.27 367.326 187.954 367.587L183.235 368.524C183.252 370.756 183.072 372.987 182.701 375.189L187.202 376.727C188.461 377.157 189.114 378.528 188.663 379.789L185.848 387.654C185.399 388.91 184.019 389.578 182.765 389.147L178.311 387.619C177.225 389.545 175.951 391.389 174.511 393.134L177.574 396.688C178.433 397.685 178.31 399.196 177.3 400.062L170.993 405.466C169.987 406.329 168.476 406.221 167.617 405.225L164.563 401.682C162.633 402.833 160.636 403.806 158.585 404.583L159.441 409.167C159.681 410.455 158.827 411.7 157.534 411.949L149.461 413.49C148.172 413.736 146.932 412.893 146.689 411.606L145.823 406.998C143.63 407.027 141.44 406.87 139.278 406.517L137.728 410.955C137.296 412.19 135.947 412.842 134.715 412.415L127.018 409.737C125.788 409.308 125.138 407.963 125.566 406.728L127.11 402.274C125.236 401.222 123.442 399.989 121.744 398.589L118.174 401.699C117.192 402.554 115.706 402.45 114.855 401.462L109.539 395.292C108.689 394.307 108.794 392.81 109.773 391.951L109.782 391.956ZM126.173 347.144C113.882 358.004 112.545 376.709 123.122 388.984C133.699 401.259 152.277 402.561 164.684 391.836C177.167 381.045 178.672 362.19 167.981 349.78C157.288 337.372 138.539 336.217 126.173 347.144Z" fill="#D8DEE8"/>
<path d="M39.6972 289.855L45.2483 284.991C43.5177 282.073 42.0529 279.045 40.8812 275.932L33.6644 277.364C31.6952 277.754 29.7891 276.459 29.4072 274.471L27.0108 262.022C26.6283 260.029 27.9122 258.092 29.8843 257.695L37.1811 256.228C37.1347 252.861 37.3718 249.493 37.8987 246.16L30.8463 243.738C28.9445 243.086 27.9339 240.988 28.5883 239.056L32.6871 226.945C33.3433 225.004 35.4235 223.959 37.33 224.611L44.4139 227.03C46.0211 224.093 47.9045 221.272 50.0401 218.593L45.1021 212.863C43.7773 211.325 43.9412 208.974 45.4702 207.609L55.0584 199.061C56.5945 197.691 58.9195 197.832 60.2479 199.375L65.1994 205.122C68.1153 203.316 71.1417 201.776 74.2533 200.533L72.8398 193.018C72.4581 190.991 73.7745 189.009 75.7806 188.59L88.3492 185.966C90.3619 185.544 92.3042 186.851 92.6828 188.885L94.088 196.411C97.4769 196.31 100.866 196.508 104.215 196.999L106.741 189.713C107.425 187.741 109.553 186.67 111.494 187.324L123.645 191.417C125.59 192.072 126.608 194.206 125.919 196.178L123.397 203.395C126.348 205.009 129.174 206.916 131.85 209.08L137.602 204.038C139.177 202.657 141.541 202.798 142.882 204.357L151.267 214.088C152.608 215.644 152.414 218.023 150.835 219.398L145.114 224.383C146.892 227.36 148.385 230.451 149.578 233.627L156.917 232.151C158.955 231.741 160.908 233.057 161.278 235.088L163.59 247.781C163.959 249.808 162.608 251.779 160.571 252.183L153.272 253.63C153.299 257.082 153.02 260.531 152.447 263.938L159.405 266.314C161.351 266.978 162.36 269.098 161.665 271.046L157.315 283.207C156.62 285.147 154.486 286.181 152.547 285.515L145.664 283.152C143.983 286.132 142.013 288.982 139.787 291.679L144.522 297.175C145.853 298.717 145.662 301.055 144.1 302.393L134.347 310.749C132.791 312.083 130.455 311.914 129.13 310.376L124.407 304.896C121.424 306.678 118.335 308.182 115.165 309.381L116.489 316.471C116.861 318.465 115.541 320.39 113.54 320.77L101.056 323.152C99.0626 323.533 97.1458 322.229 96.7717 320.242L95.4314 313.119C92.0399 313.166 88.6534 312.919 85.3148 312.375L82.9173 319.236C82.2506 321.145 80.1654 322.155 78.2584 321.491L66.3575 317.349C64.4564 316.687 63.4516 314.606 64.1136 312.697L66.5011 305.809C63.6023 304.181 60.829 302.276 58.202 300.113L52.6822 304.924C51.1637 306.246 48.8668 306.082 47.5531 304.557L39.3328 295.017C38.0191 293.492 38.1799 291.179 39.6949 289.852L39.6972 289.855ZM65.042 220.566C46.0353 237.357 43.9689 266.28 60.3223 285.258C76.6757 304.236 105.401 306.25 124.585 289.667C143.886 272.983 146.216 243.831 129.683 224.646C113.15 205.46 84.1622 203.675 65.042 220.566Z" fill="#D8DEE8"/>
<g clip-path="url(#clip0_102_1193)">
<path d="M626 461.416L124.017 457.127V469.816C124.017 473.261 126.206 476.188 129.172 476.711L271.118 501.698C272.804 501.994 274.51 502.075 276.211 501.933L620.545 473.445C623.619 473.19 626 470.253 626 466.714V461.418V461.416Z" fill="#195394"/>
<path d="M443.831 441.081L129.207 464.294C123.577 464.71 119 460.295 119 454.434V219.612C119 213.752 123.577 209 129.207 209H443.831C448.468 209 452.22 213.295 452.22 218.594V430.868C452.22 436.167 448.47 440.738 443.831 441.081Z" fill="#195394"/>
<path d="M448.848 441.081L134.224 464.294C128.593 464.71 124.017 460.295 124.017 454.434V219.612C124.017 213.752 128.593 209 134.224 209H448.848C453.487 209 457.237 213.295 457.237 218.594V430.868C457.237 436.167 453.487 440.738 448.848 441.081Z" fill="#0F3157"/>
<path d="M439.047 426.115L146.007 446.279C141.426 446.595 137.702 442.972 137.702 438.187V232.6C137.702 227.815 141.424 223.919 146.007 223.9L439.047 222.634C442.873 222.618 445.968 226.137 445.968 230.495V417.748C445.968 422.106 442.873 425.852 439.047 426.115Z" fill="white"/>
<path d="M302.647 215.423C302.647 217.606 301.028 219.379 299.028 219.385C297.026 219.391 295.402 217.624 295.402 215.437C295.402 213.25 297.026 211.477 299.028 211.475C301.028 211.475 302.647 213.24 302.647 215.423Z" fill="white"/>
<path d="M461.389 439.794L124.017 464.228L271.116 490.122C272.802 490.418 274.508 490.496 276.209 490.357L625.998 461.416L466.754 439.96C464.973 439.721 463.176 439.664 461.387 439.794H461.389Z" fill="#0F3157"/>
<path d="M173.244 464.437L454.116 443.793L541.045 455.41L262.591 477.48L173.244 464.437Z" fill="#195394"/>
<path d="M264.246 437.799L144.703 445.862C141.195 446.099 138.22 443.311 138.22 439.788V229.945C138.22 226.592 140.924 223.87 144.269 223.857L264.244 223.371V437.799H264.246Z" fill="#D8DEE8"/>
<path d="M418.627 323.369L292.672 327.803V315.039L418.627 311.083V323.369Z" fill="#D8DEE8"/>
<path d="M418.627 343.495L292.672 348.715V335.951L418.627 331.209V343.495Z" fill="#D8DEE8"/>
<path d="M251.916 325.662L179.592 328.132V318.592L251.916 316.321V325.662Z" fill="white"/>
<path d="M251.916 340.965L179.592 343.761V334.22L251.916 331.622V340.965Z" fill="white"/>
<path d="M251.916 356.266L179.592 359.39V349.849L251.916 346.926V356.266Z" fill="white"/>
<path d="M251.916 371.569L179.592 375.018V365.48L251.916 362.229V371.569Z" fill="white"/>
<path d="M348.33 366.973L292.672 369.626V356.862L348.33 354.42V366.973Z" fill="#D8DEE8"/>
<path d="M339.368 266.951V286.124C339.368 291.667 344.021 296.041 349.743 295.89L363.933 295.519C369.587 295.373 374.156 290.805 374.156 285.321V266.349L339.368 266.951ZM352.436 286.772L355.073 278.764C353.943 278.18 353.178 277.028 353.178 275.688C353.178 273.719 354.825 272.092 356.854 272.055C358.881 272.016 360.522 273.578 360.522 275.541C360.522 276.879 359.759 278.059 358.633 278.69L361.261 286.567L352.436 286.772Z" fill="#D8DEE8"/>
<path d="M370.123 264.688C368.617 264.713 367.395 263.545 367.395 262.08C367.395 256.444 362.674 251.92 356.854 251.994C351.012 252.069 346.244 256.746 346.244 262.417C346.244 263.892 345.006 265.109 343.478 265.134C341.947 265.16 340.707 263.982 340.707 262.505C340.707 253.873 347.97 246.768 356.856 246.668C365.692 246.569 372.846 253.444 372.846 261.991C372.846 263.455 371.628 264.662 370.124 264.688H370.123Z" fill="#D8DEE8"/>
<g style="mix-blend-mode:soft-light" opacity="0.48">
<path d="M134.224 464.294L447.256 441.198L448.849 441.081C450.979 440.924 452.912 439.87 454.39 438.271C431.864 437.035 417.872 429.024 408.848 420.746C390.723 404.12 393.866 387.725 374.32 376.793C349.941 363.16 330.772 380.436 312.274 363.389C301.058 353.055 306.565 345.348 292.764 329.906C277.48 312.802 267.527 318.551 252.166 303.157C232.743 283.692 242.458 268.548 225.727 254.573C205.43 237.62 183.541 253.311 164.22 237.052C155.885 230.039 151.313 219.844 148.924 209H134.224C128.595 209 124.017 213.752 124.017 219.612V454.434C124.017 460.295 128.593 464.708 134.224 464.294Z" fill="white"/>
</g>
</g>
<path d="M473.671 53.8771C473.671 25.3727 448.801 2.26978 418.955 2.27252C389.992 2.27526 367.134 24.1631 367.134 51.1593C367.134 78.1554 389.992 101.209 418.955 102.69C448.801 104.216 473.671 82.3801 473.671 53.8771Z" fill="#0F3157"/>
<path d="M470.454 51.6046C470.454 23.1002 446.303 -0.00273951 417.322 2.43653e-07C389.197 0.00274 367 21.8906 367 48.8868C367 75.8829 389.197 98.9366 417.322 100.417C446.304 101.943 470.454 80.1076 470.454 51.6046Z" fill="url(#paint0_linear_102_1193)"/>
<g style="mix-blend-mode:soft-light" opacity="0.5">
<path d="M462.185 51.3868C462.185 27.4386 441.895 8.02745 417.545 8.03156C393.916 8.0343 375.266 26.4235 375.266 49.1046C375.266 71.7856 393.915 91.1543 417.545 92.3981C441.895 93.6803 462.185 75.3349 462.185 51.3881V51.3868Z" fill="white"/>
</g>
<g style="mix-blend-mode:soft-light" opacity="0.5">
<path d="M419.222 11.711C395.593 11.7138 376.944 30.103 376.944 52.784C376.944 58.1772 378.008 63.3787 379.933 68.1979C376.952 62.3951 375.266 55.9005 375.266 49.1046C375.266 26.4235 393.915 8.0343 417.545 8.03156C436.325 8.03019 452.68 19.581 459.184 35.8496C451.818 21.5468 436.553 11.711 419.222 11.7124V11.711Z" fill="white"/>
</g>
<path d="M437.735 45.5251V66.4267C437.735 72.4692 432.65 77.2364 426.397 77.0734L410.89 76.6692C404.712 76.5076 399.719 71.5308 399.719 65.5513V44.8703L437.735 45.5265V45.5251ZM423.454 67.1335L420.572 58.4033C421.807 57.7663 422.642 56.5115 422.642 55.0499C422.642 52.9046 420.842 51.1306 418.625 51.0895C416.411 51.0471 414.617 52.7485 414.617 54.8896C414.617 56.3485 415.45 57.6348 416.681 58.3225L413.81 66.9089L423.454 67.1335Z" fill="white"/>
<path d="M404.126 43.0579C405.771 43.0853 407.106 41.8127 407.106 40.214C407.106 34.0702 412.265 29.1386 418.627 29.2208C425.01 29.303 430.221 34.4003 430.221 40.5825C430.221 42.1908 431.574 43.5168 433.244 43.5456C434.915 43.573 436.272 42.2908 436.272 40.6798C436.272 31.2701 428.334 23.5248 418.625 23.4166C408.968 23.3084 401.151 30.8016 401.151 40.1209C401.151 41.7154 402.482 43.0319 404.126 43.0593V43.0579Z" fill="white"/>
<path d="M406.866 187.945C406.866 187.945 408.516 181.76 407.346 180.179C406.176 178.597 399.029 172.275 399.715 174.337C400.403 176.399 401.434 177.772 401.434 177.772C401.434 177.772 397.584 179.56 400.06 182.238C402.534 184.919 403.361 185.536 403.498 187.943C403.636 190.348 405.215 191.173 406.866 187.943V187.945Z" fill="url(#paint1_linear_102_1193)"/>
<path d="M475.535 454.917C475.535 454.917 476.41 460.265 476.299 462.168C476.187 464.071 455.056 465.044 454.844 463.619C454.63 462.192 458.336 459.925 460.944 459.125C463.553 458.324 471.188 456.189 471.188 456.189L475.535 454.917Z" fill="url(#paint2_linear_102_1193)"/>
<path d="M470.406 449.585L471.079 456.237C471.079 456.237 473.533 457.859 475.696 456.607L476.779 449.368L470.406 449.587V449.585Z" fill="url(#paint3_linear_102_1193)"/>
<path d="M513.236 463.587C513.236 463.587 514.11 468.936 513.999 470.839C513.887 472.742 492.756 473.715 492.544 472.29C492.33 470.865 496.036 468.595 498.645 467.796C501.253 466.997 508.889 464.86 508.889 464.86L513.236 463.587Z" fill="url(#paint4_linear_102_1193)"/>
<path d="M508.106 458.255L508.779 464.907C508.779 464.907 511.234 466.53 513.397 465.278L514.479 458.039L508.106 458.257V458.255Z" fill="url(#paint5_linear_102_1193)"/>
<path d="M474.241 275.944C471.799 280.895 469.356 285.845 466.914 290.795C464.951 319.047 463.973 349.769 464.602 382.624C465.069 407.067 466.374 430.223 468.252 451.957C471.564 451.805 474.875 451.653 478.187 451.501C482.976 441.998 488.628 427.604 489.149 409.834C489.691 391.299 484.071 388.836 484.427 371.09C484.89 348.087 494.538 341.951 499.678 314.281C501.644 303.698 502.966 289.878 501.395 273.111C492.345 274.054 483.295 274.999 474.245 275.942L474.241 275.944Z" fill="url(#paint6_linear_102_1193)"/>
<path style="mix-blend-mode:multiply" opacity="0.3" d="M501.39 273.111C496.503 273.621 491.616 274.131 486.727 274.641C477.927 289.949 475.471 305.88 477.016 312.928C479.201 322.9 484.98 326.093 484.66 336.103C484.345 346.008 478.508 348.578 474.806 360.251C472.243 368.334 472.92 375.766 474.378 390.3C477.314 419.576 484.386 428.53 478.463 438.128C476.781 440.856 473.748 444.103 467.806 446.582C467.952 448.378 468.095 450.178 468.247 451.955C471.559 451.805 474.871 451.651 478.183 451.498C482.971 441.996 488.624 427.602 489.145 409.832C489.687 391.297 484.067 388.834 484.422 371.088C484.885 348.085 494.533 341.949 499.673 314.281C501.639 303.698 502.962 289.878 501.39 273.111Z" fill="url(#paint7_linear_102_1193)"/>
<path d="M487.38 284.857C491.965 309.853 496.015 336.605 499.174 364.976C502.99 399.232 505.026 431.528 505.825 461.511C509.461 461.613 513.094 461.716 516.73 461.819C531.053 433.491 531.927 414.285 529.863 401.78C529.068 396.963 526.905 387.514 526.412 373.392C526.069 363.549 526.697 356.057 527.481 347.052C529.201 327.308 531.288 322.998 531.588 307.897C531.871 293.723 531.929 286.552 527.882 282.367C517.22 271.339 489.483 283.882 487.38 284.857Z" fill="url(#paint8_linear_102_1193)"/>
<path d="M408.767 186.992C406.349 186.822 403.933 186.655 401.516 186.486C395.814 209.525 399.904 231.873 412.773 240.091C432.882 252.932 470.254 228.74 478.352 202.396C481.906 190.832 481.098 174.146 473.992 170.904C472.02 170.004 468.959 169.864 462.329 173.585C442.53 184.698 442.009 205.704 431.943 207.483C427.467 208.274 420.241 205.422 408.763 186.989L408.767 186.992Z" fill="url(#paint9_linear_102_1193)"/>
<path d="M464.13 295.864C460.646 290.086 465.021 284.514 466.016 273.57C467.143 261.164 462.363 259.098 457.637 238.54C454.492 224.867 451.476 211.741 455.077 196.376C456.803 189.012 459.731 176.523 470.071 170.49C475.407 167.376 482.692 167.689 497.043 168.439C514.792 169.367 523.664 169.83 530.283 173.315C531.252 173.825 551.384 184.773 552.771 202.621C554.181 220.785 534.396 223.226 531.758 247.448C530.572 258.322 532.684 275.046 534.053 285.892C535.367 296.307 536.274 298.973 534.216 302.128C529.261 309.729 514.091 307.562 483.751 303.231C471.851 301.532 466.728 300.177 464.13 295.866V295.864Z" fill="#A47DF6"/>
<path d="M510.293 243.55C511.577 248.271 516.19 251.797 519.401 263.281C520.093 265.76 525.034 283.417 518.627 287.763C514.927 290.272 511.605 285.517 502.623 284.896C487.061 283.82 479.647 296.896 469.48 293.324C467.716 292.703 465.388 291.382 463.062 288.348C462.599 291.082 462.679 293.459 464.128 295.866C466.726 300.177 471.849 301.532 483.749 303.231C514.089 307.562 529.259 309.729 534.214 302.128C536.27 298.975 535.365 296.307 534.052 285.892C532.682 275.044 530.57 258.32 531.756 247.448C534.394 223.226 554.181 220.785 552.769 202.621C552.391 197.764 550.606 193.442 548.216 189.677C523.117 199.83 506.259 228.714 510.291 243.55H510.293Z" fill="url(#paint10_linear_102_1193)"/>
<path d="M541.996 279.279L536.973 282.485C536.071 281.443 533.983 279.343 530.725 278.627C527.053 277.819 522.837 278.979 522.74 280.149C522.661 281.087 525.229 282.035 525.626 282.18C528.83 283.363 531.207 282.38 532.502 283.668C532.961 284.122 533.531 284.971 534.845 285.755C535.19 285.961 535.55 286.143 535.741 286.218C537.88 287.049 541.548 283.327 541.863 283.001L541.996 279.277V279.279Z" fill="url(#paint11_linear_102_1193)"/>
<path d="M527.158 213.432C523.525 204.734 521.008 191.415 526.747 171.637C564.554 186.531 583.835 221.839 576.307 249.827C570.101 272.901 547.522 284.139 542.484 286.505C541.312 283.837 540.139 281.171 538.969 278.505C544.806 272.007 551.384 262.398 550.454 251.432C549.163 236.232 534.515 231.041 527.16 213.432H527.158Z" fill="url(#paint12_linear_102_1193)"/>
<path d="M498.218 150.914C498.218 150.914 498.52 157.537 500.604 162.498C502.486 166.98 512.389 169.799 514.396 170.799C516.404 171.8 510.636 174.726 504.843 175.299C499.051 175.874 482.512 174.575 479.53 172.409C476.548 170.243 481.927 170.406 486.059 168.908C490.194 167.41 492.585 159.43 491.854 155.809C491.125 152.187 498.218 150.914 498.218 150.914Z" fill="url(#paint13_linear_102_1193)"/>
<path d="M480.747 134.846C474.418 127.954 473.534 127.152 472.847 124.771C470.08 115.215 476.772 102.121 485.547 98.8979C486.005 98.7304 491.891 96.6445 494.135 99.4714C496.045 101.872 493.237 105.191 494.57 109.825C495.821 114.159 499.21 114.484 505.499 120.168C510.679 124.848 513.894 127.761 514.636 131.857C516.166 140.297 506.946 152.528 498.784 152.198C495.848 152.076 495.051 150.417 480.747 134.846Z" fill="url(#paint14_linear_102_1193)"/>
<path d="M498.346 152.96C498.346 152.96 491.463 160.698 480.981 158.139C471.596 155.849 473.991 134.454 480.86 131.039C483.151 129.899 487.316 129.992 490.446 131.49C492.297 132.374 492.812 133.296 495.863 134.682C498.674 135.962 499.569 135.785 500.323 136.688C501.27 137.814 501.678 140.243 498.712 146.096C500.848 144.593 503.149 144.277 504.559 145.273C504.784 145.431 505.356 145.989 505.604 146.72C506.499 149.372 503.725 152.062 498.346 152.96Z" fill="url(#paint15_linear_102_1193)"/>
<path d="M181.184 98.4426L180.314 103.139L198.226 103.181L353.666 103.549C357.665 103.559 361.342 106.864 361.891 110.931L398.997 358.865C399.549 362.969 393.161 369.234 389.186 369.54L320.226 374.838V374.754L217.072 382.666H217.067L216.818 382.77C212.414 383.11 208.373 379.915 207.801 375.58C207.801 375.579 207.801 375.599 207.801 375.597L173.05 110.884C172.487 106.588 176.756 98.4292 181.186 98.4426H181.184Z" fill="#0F3157"/>
<path d="M211.315 370.421C211.884 374.757 215.923 377.998 220.327 377.66L392.873 364.415C396.847 364.11 399.612 360.536 399.06 356.432L365.328 105.861C364.781 101.794 361.103 98.4897 357.108 98.4779L183.588 98.0001C179.16 97.9883 176.019 101.459 176.581 105.753L211.313 370.421H211.315Z" fill="#6CA3E0"/>
<path d="M209.023 232.623C209.305 234.769 211.312 236.371 213.503 236.291L365.363 230.75C367.368 230.677 368.778 229.027 368.502 226.976L365.517 204.851C365.24 202.802 363.411 201.416 361.405 201.471L209.412 205.691C207.217 205.752 205.664 207.301 205.945 209.447L209.021 232.621L209.023 232.623Z" fill="white"/>
<path d="M214.905 277.576C215.187 279.727 217.195 281.564 219.386 281.455L371.133 273.96C373.135 273.861 374.529 271.945 374.253 269.892L371.244 247.34C370.968 245.289 369.121 243.531 367.117 243.611L215.278 249.734C213.087 249.824 211.537 251.806 211.82 253.954L214.905 277.578V277.576Z" fill="white"/>
<g style="mix-blend-mode:multiply" opacity="0.1">
<path d="M205.934 209.357C206.294 209.241 206.681 209.177 207.094 209.165L359.091 204.947C361.095 204.89 362.926 206.28 363.199 208.324L366.189 230.449C366.196 230.506 366.201 230.56 366.206 230.617C367.748 230.183 368.739 228.722 368.507 226.972L365.516 204.848C365.244 202.804 363.412 201.412 361.408 201.471L209.411 205.689C207.255 205.753 205.709 207.254 205.934 209.357Z" fill="#0F3157"/>
</g>
<g style="mix-blend-mode:multiply" opacity="0.1">
<path d="M211.786 253.456C212.151 253.312 212.545 253.224 212.962 253.207L364.798 247.083C366.802 247.002 368.652 248.764 368.924 250.815L371.939 273.368C371.955 273.513 371.967 273.652 371.967 273.797C373.509 273.299 374.488 271.642 374.256 269.892L371.242 247.338C370.969 245.287 369.121 243.526 367.115 243.606L215.28 249.731C213.252 249.819 211.779 251.51 211.786 253.456Z" fill="#9AC0E9"/>
</g>
<path d="M255.261 314.013C254.813 310.619 257.213 307.493 260.625 307.296L339.178 302.786C342.431 302.6 345.435 305.339 345.878 308.644L349.119 333.071C349.562 336.381 347.305 339.548 344.053 339.77L265.541 345.141C262.131 345.375 258.99 342.496 258.541 339.097L255.261 314.013Z" fill="#F8F9FD"/>
<path d="M249.328 149.434C250.363 157.242 254.375 164.291 260.081 169.475C266.229 175.066 274.327 178.468 282.749 178.305C291.128 178.144 298.182 174.484 302.711 168.768C306.888 163.5 308.934 156.48 307.909 148.803C305.777 132.83 291.098 119.918 274.99 119.956C258.731 119.995 247.179 133.19 249.33 149.435L249.328 149.434Z" fill="#9AC0E9"/>
<path d="M264.993 140.558C265.922 147.554 272.381 153.161 279.394 153.076C286.379 152.992 291.269 147.293 290.345 140.348C289.42 133.404 283.026 127.802 276.038 127.834C269.022 127.866 264.066 133.562 264.995 140.558H264.993Z" fill="white"/>
<path d="M260.081 169.475C266.229 175.066 274.327 178.468 282.749 178.305C291.128 178.144 298.182 174.484 302.711 168.768C297.527 161.548 288.978 156.746 279.898 156.864C270.769 156.983 263.411 162.04 260.081 169.475Z" fill="white"/>
<g style="mix-blend-mode:soft-light" opacity="0.4">
<path d="M176.583 105.753L211.315 370.421C211.884 374.756 216.18 377.978 220.583 377.64L324.216 369.685C329.139 364.645 333.193 358.598 336.086 351.341C337.507 347.782 338.547 343.943 339.238 339.904C341.162 328.729 340.416 316.025 337.611 303.555C335.453 293.956 332.071 284.48 327.74 275.929C324.277 269.093 320.204 262.842 315.655 257.589C312.38 253.808 308.837 250.135 305.101 246.532C300.595 242.185 295.807 237.941 290.868 233.736C279.358 223.932 267.033 214.346 255.623 204.224C229.294 180.873 207.934 154.781 213.074 117.552C213.239 116.379 214.843 107.399 216.892 98.0909L183.845 98.0001C179.419 97.9883 176.019 101.459 176.583 105.752V105.753Z" fill="white"/>
</g>
<defs>
<linearGradient id="paint0_linear_102_1193" x1="453.343" y1="81.6172" x2="362.092" y2="-1.21023" gradientUnits="userSpaceOnUse">
<stop stop-color="#8AC2FF"/>
<stop offset="1" stop-color="#2375D0"/>
</linearGradient>
<linearGradient id="paint1_linear_102_1193" x1="395.383" y1="174.406" x2="423.671" y2="203.206" gradientUnits="userSpaceOnUse">
<stop stop-color="#FFC444"/>
<stop offset="1" stop-color="#F36F56"/>
</linearGradient>
<linearGradient id="paint2_linear_102_1193" x1="465.517" y1="447.907" x2="465.277" y2="384.03" gradientUnits="userSpaceOnUse">
<stop stop-color="#AA80F9"/>
<stop offset="1" stop-color="#6165D7"/>
</linearGradient>
<linearGradient id="paint3_linear_102_1193" x1="471.872" y1="468.476" x2="474.911" y2="435.469" gradientUnits="userSpaceOnUse">
<stop stop-color="#FFC444"/>
<stop offset="1" stop-color="#F36F56"/>
</linearGradient>
<linearGradient id="paint4_linear_102_1193" x1="503.185" y1="447.765" x2="502.945" y2="383.888" gradientUnits="userSpaceOnUse">
<stop stop-color="#AA80F9"/>
<stop offset="1" stop-color="#6165D7"/>
</linearGradient>
<linearGradient id="paint5_linear_102_1193" x1="510.048" y1="471.991" x2="513.087" y2="438.982" gradientUnits="userSpaceOnUse">
<stop stop-color="#FFC444"/>
<stop offset="1" stop-color="#F36F56"/>
</linearGradient>
<linearGradient id="paint6_linear_102_1193" x1="473" y1="302.119" x2="496.409" y2="421.822" gradientUnits="userSpaceOnUse">
<stop stop-color="#311944"/>
<stop offset="1" stop-color="#893976"/>
</linearGradient>
<linearGradient id="paint7_linear_102_1193" x1="461.333" y1="360.694" x2="496.518" y2="363.513" gradientUnits="userSpaceOnUse">
<stop stop-color="#311944"/>
<stop offset="1" stop-color="#893976"/>
</linearGradient>
<linearGradient id="paint8_linear_102_1193" x1="480.795" y1="367.312" x2="534.207" y2="371.591" gradientUnits="userSpaceOnUse">
<stop stop-color="#311944"/>
<stop offset="1" stop-color="#893976"/>
</linearGradient>
<linearGradient id="paint9_linear_102_1193" x1="438.586" y1="191.016" x2="478.084" y2="444.746" gradientUnits="userSpaceOnUse">
<stop stop-color="#AA80F9"/>
<stop offset="1" stop-color="#6165D7"/>
</linearGradient>
<linearGradient id="paint10_linear_102_1193" x1="587.634" y1="382.245" x2="482.172" y2="201.581" gradientUnits="userSpaceOnUse">
<stop stop-color="#AA80F9"/>
<stop offset="1" stop-color="#6165D7"/>
</linearGradient>
<linearGradient id="paint11_linear_102_1193" x1="550.218" y1="257.304" x2="527.977" y2="287.356" gradientUnits="userSpaceOnUse">
<stop stop-color="#FFC444"/>
<stop offset="1" stop-color="#F36F56"/>
</linearGradient>
<linearGradient id="paint12_linear_102_1193" x1="569.355" y1="466.075" x2="588.47" y2="722.15" gradientUnits="userSpaceOnUse">
<stop stop-color="#AA80F9"/>
<stop offset="1" stop-color="#6165D7"/>
</linearGradient>
<linearGradient id="paint13_linear_102_1193" x1="487.211" y1="182.834" x2="508.598" y2="155.873" gradientUnits="userSpaceOnUse">
<stop stop-color="#FFC444"/>
<stop offset="1" stop-color="#F36F56"/>
</linearGradient>
<linearGradient id="paint14_linear_102_1193" x1="511.495" y1="192.96" x2="482.27" y2="106.214" gradientUnits="userSpaceOnUse">
<stop stop-color="#444B8C"/>
<stop offset="1" stop-color="#3E4177"/>
</linearGradient>
<linearGradient id="paint15_linear_102_1193" x1="449.062" y1="160.716" x2="518.691" y2="129.505" gradientUnits="userSpaceOnUse">
<stop stop-color="#FFC444"/>
<stop offset="1" stop-color="#F36F56"/>
</linearGradient>
<clipPath id="clip0_102_1193">
<rect width="507" height="293" fill="white" transform="translate(119 209)"/>
</clipPath>
</defs>
</svg>
